<svg width="150" height="150" viewBox="0 0 150 150" fill="none" xmlns="http://www.w3.org/2000/svg">
<rect x="0.5" y="0.5" width="149" height="149" rx="9.5" fill="#212121" stroke="#333333"/>
<g clip-path="url(#clip0_6_186)">
<path d="M104.553 104.613L110.93 38H40L40.0833 38.8644L46.3667 104.623L46.42 105.17L75.1967 112.626H75.65L104.493 105.164L104.547 104.617L104.553 104.613ZM75.5267 52.549H96.1367L95.5167 59.2654L75.1833 67.6982L75.5233 69.2156H94.6033L92.4067 92.695L75.4533 97.0793L58.5067 92.7012L57.44 81.4575H64.4167L64.9767 87.1571L65.03 87.7105L75.3133 90.2603H75.7567L85.9267 87.6235L85.9767 87.0731L86.9367 76.5446L87.0133 75.6864H56.8567L56.2233 68.9295L77.2533 60.531L76.92 59.0073H55.32L54.7033 52.5397H75.5033L75.5267 52.549Z" fill="#8569F4"/>
</g>
<defs>
<clipPath id="clip0_6_186">
<rect x="40" y="38" width="70" height="74.6264" rx="10" fill="white"/>
</clipPath>
</defs>
</svg>
