<svg width="45" height="45" viewBox="0 0 45 45" fill="none" xmlns="http://www.w3.org/2000/svg">
<rect width="45" height="45" rx="5" fill="#212121"/>
<path d="M22 9.20001C14.9312 9.20001 9.20001 14.9312 9.20001 22C9.20001 27.9979 13.3301 33.0165 18.8981 34.4053C18.8384 34.2325 18.8 34.032 18.8 33.7835V31.5957C18.2805 31.5957 17.4101 31.5957 17.1915 31.5957C16.3157 31.5957 15.5371 31.2192 15.1595 30.5195C14.7403 29.7419 14.6677 28.5525 13.6288 27.8251C13.3205 27.5829 13.5552 27.3067 13.9104 27.344C14.5664 27.5296 15.1104 27.9797 15.6224 28.6475C16.1323 29.3163 16.3723 29.4677 17.3248 29.4677C17.7867 29.4677 18.4779 29.4411 19.1285 29.3387C19.4784 28.4501 20.0832 27.632 20.8224 27.2459C16.56 26.8075 14.5259 24.6869 14.5259 21.808C14.5259 20.5685 15.0539 19.3696 15.9509 18.3595C15.6565 17.3568 15.2864 15.312 16.064 14.5333C17.9819 14.5333 19.1413 15.7771 19.4197 16.1131C20.3755 15.7856 21.4251 15.6 22.528 15.6C23.6331 15.6 24.6869 15.7856 25.6448 16.1152C25.92 15.7813 27.0805 14.5333 29.0027 14.5333C29.7835 15.3131 29.4091 17.3664 29.1115 18.3669C30.0032 19.3749 30.528 20.5707 30.528 21.808C30.528 24.6848 28.4971 26.8043 24.2411 27.2448C25.4123 27.856 26.2667 29.5733 26.2667 30.8672V33.7835C26.2667 33.8944 26.2421 33.9744 26.2293 34.0693C31.2171 32.3211 34.8 27.5851 34.8 22C34.8 14.9312 29.0688 9.20001 22 9.20001Z" fill="#8569F4"/>
</svg>
