<svg width="45" height="45" viewBox="0 0 45 45" fill="none" xmlns="http://www.w3.org/2000/svg">
<rect width="45" height="45" rx="5" fill="#212121"/>
<path d="M15.6 32.6667H10.2667V16.6667H15.6V32.6667ZM12.9344 14.5333C11.4592 14.5333 10.2667 13.3376 10.2667 11.8656C10.2667 10.3936 11.4613 9.20001 12.9344 9.20001C14.4043 9.20001 15.6 10.3957 15.6 11.8656C15.6 13.3376 14.4043 14.5333 12.9344 14.5333ZM34.8 32.6667H29.6725V24.88C29.6725 23.0229 29.6373 20.6347 27.0069 20.6347C24.3371 20.6347 23.9264 22.6571 23.9264 24.7456V32.6667H18.8V16.6549H23.7216V18.8427H23.7909C24.4757 17.584 26.1493 16.2571 28.6453 16.2571C33.84 16.2571 34.8 19.5733 34.8 23.8848C34.8 23.8848 34.8 32.6667 34.8 32.6667Z" fill="#8569F4"/>
</svg>
