<svg width="32" height="32" viewBox="0 0 32 32" fill="none" xmlns="http://www.w3.org/2000/svg">
<path d="M9.6 26.6666H4.26666V10.6666H9.6V26.6666ZM6.9344 8.53328C5.4592 8.53328 4.26666 7.33755 4.26666 5.86555C4.26666 4.39355 5.46133 3.19995 6.9344 3.19995C8.40426 3.19995 9.6 4.39568 9.6 5.86555C9.6 7.33755 8.40426 8.53328 6.9344 8.53328ZM28.8 26.6666H23.6725V18.88C23.6725 17.0229 23.6373 14.6346 21.0069 14.6346C18.3371 14.6346 17.9264 16.657 17.9264 18.7456V26.6666H12.8V10.6549H17.7216V12.8426H17.7909C18.4757 11.584 20.1493 10.257 22.6453 10.257C27.84 10.257 28.8 13.5733 28.8 17.8848C28.8 17.8848 28.8 26.6666 28.8 26.6666Z" fill="#8569F4"/>
</svg>
