<svg width="335" height="29" viewBox="0 0 335 29" fill="none" xmlns="http://www.w3.org/2000/svg">
<path d="M7.248 20.744L0.112 13.512L7.248 6.312H12.432L5.232 13.512L12.432 20.744H7.248ZM15.4235 28.552L23.4235 0.136H27.4235L19.3915 28.552H15.4235ZM34.0943 13.48L34.7023 8.968L31.1183 11.784L29.5823 9.064L33.7743 7.4L29.6143 5.8L31.0543 3.208L34.7343 5.992L34.0943 1.416H37.0703L36.4303 5.992L40.0783 3.208L41.4863 5.768L37.3263 7.432L41.5183 9.096L40.0143 11.752L36.4303 8.968L37.0383 13.48H34.0943ZM300.844 13.48L301.452 8.968L297.868 11.784L296.332 9.064L300.524 7.4L296.364 5.8L297.804 3.208L301.484 5.992L300.844 1.416H303.82L303.18 5.992L306.828 3.208L308.236 5.768L304.076 7.432L308.268 9.096L306.764 11.752L303.18 8.968L303.788 13.48H300.844ZM307.33 28.552L315.33 0.136H319.33L311.298 28.552H307.33ZM322.303 20.744L329.47 13.512L322.303 6.312H327.455L334.623 13.512L327.455 20.744H322.303Z" fill="#5A35EE"/>
<path d="M53.3948 25V2.6H58.2588L65.3948 16.808L72.4348 2.6H77.2988V25H73.2028V9.544L66.9628 21.8H63.7308L57.4908 9.544V25H53.3948ZM87.0208 25.384C85.6554 25.384 84.5354 25.1707 83.6608 24.744C82.7861 24.296 82.1354 23.7093 81.7088 22.984C81.2821 22.2587 81.0688 21.4587 81.0688 20.584C81.0688 19.112 81.6448 17.9173 82.7968 17C83.9488 16.0827 85.6768 15.624 87.9808 15.624H92.0128V15.24C92.0128 14.152 91.7034 13.352 91.0848 12.84C90.4661 12.328 89.6981 12.072 88.7808 12.072C87.9488 12.072 87.2234 12.2747 86.6048 12.68C85.9861 13.064 85.6021 13.64 85.4528 14.408H81.4528C81.5594 13.256 81.9434 12.2533 82.6048 11.4C83.2874 10.5467 84.1621 9.896 85.2288 9.448C86.2954 8.97867 87.4901 8.744 88.8128 8.744C91.0741 8.744 92.8554 9.30933 94.1568 10.44C95.4581 11.5707 96.1088 13.1707 96.1088 15.24V25H92.6208L92.2368 22.44C91.7674 23.2933 91.1061 23.9973 90.2528 24.552C89.4208 25.1067 88.3434 25.384 87.0208 25.384ZM87.9488 22.184C89.1221 22.184 90.0288 21.8 90.6688 21.032C91.3301 20.264 91.7461 19.3147 91.9168 18.184H88.4288C87.3408 18.184 86.5621 18.3867 86.0928 18.792C85.6234 19.176 85.3888 19.656 85.3888 20.232C85.3888 20.8507 85.6234 21.3307 86.0928 21.672C86.5621 22.0133 87.1808 22.184 87.9488 22.184ZM106.871 25C105.207 25 103.873 24.5947 102.871 23.784C101.868 22.9733 101.367 21.5333 101.367 19.464V12.552H98.6468V9.128H101.367L101.847 4.872H105.463V9.128H109.751V12.552H105.463V19.496C105.463 20.264 105.623 20.7973 105.943 21.096C106.284 21.3733 106.86 21.512 107.671 21.512H109.655V25H106.871ZM120.573 25.384C118.973 25.384 117.555 25.0427 116.317 24.36C115.08 23.6773 114.109 22.7173 113.405 21.48C112.701 20.2427 112.349 18.8133 112.349 17.192C112.349 15.5493 112.691 14.088 113.373 12.808C114.077 11.528 115.037 10.536 116.253 9.832C117.491 9.10667 118.941 8.744 120.605 8.744C122.163 8.744 123.539 9.08533 124.733 9.768C125.928 10.4507 126.856 11.3893 127.517 12.584C128.2 13.7573 128.541 15.0693 128.541 16.52C128.541 16.7547 128.531 17 128.509 17.256C128.509 17.512 128.499 17.7787 128.477 18.056H116.413C116.499 19.2933 116.925 20.264 117.693 20.968C118.483 21.672 119.432 22.024 120.541 22.024C121.373 22.024 122.067 21.8427 122.621 21.48C123.197 21.096 123.624 20.6053 123.901 20.008H128.061C127.763 21.0107 127.261 21.928 126.557 22.76C125.875 23.5707 125.021 24.2107 123.997 24.68C122.995 25.1493 121.853 25.384 120.573 25.384ZM120.605 12.072C119.603 12.072 118.717 12.36 117.949 12.936C117.181 13.4907 116.691 14.344 116.477 15.496H124.381C124.317 14.4507 123.933 13.6187 123.229 13C122.525 12.3813 121.651 12.072 120.605 12.072ZM137.938 25.384C135.954 25.384 134.418 24.7653 133.33 23.528C132.264 22.2907 131.73 20.4773 131.73 18.088V9.128H135.794V17.704C135.794 19.0693 136.072 20.1147 136.626 20.84C137.181 21.5653 138.056 21.928 139.25 21.928C140.381 21.928 141.309 21.5227 142.034 20.712C142.781 19.9013 143.154 18.7707 143.154 17.32V9.128H147.25V25H143.634L143.314 22.312C142.824 23.2507 142.109 23.9973 141.17 24.552C140.253 25.1067 139.176 25.384 137.938 25.384ZM158.015 25.384C156.607 25.384 155.37 25.16 154.303 24.712C153.236 24.2427 152.383 23.6027 151.743 22.792C151.103 21.9813 150.719 21.0427 150.591 19.976H154.719C154.847 20.5947 155.188 21.128 155.743 21.576C156.319 22.0027 157.055 22.216 157.951 22.216C158.847 22.216 159.498 22.0347 159.903 21.672C160.33 21.3093 160.543 20.8933 160.543 20.424C160.543 19.7413 160.244 19.2827 159.647 19.048C159.05 18.792 158.218 18.5467 157.151 18.312C156.468 18.1627 155.775 17.9813 155.071 17.768C154.367 17.5547 153.716 17.288 153.119 16.968C152.543 16.6267 152.074 16.2 151.711 15.688C151.348 15.1547 151.167 14.504 151.167 13.736C151.167 12.328 151.722 11.144 152.831 10.184C153.962 9.224 155.54 8.744 157.567 8.744C159.444 8.744 160.938 9.18133 162.047 10.056C163.178 10.9307 163.85 12.136 164.063 13.672H160.191C159.956 12.4987 159.071 11.912 157.535 11.912C156.767 11.912 156.17 12.0613 155.743 12.36C155.338 12.6587 155.135 13.032 155.135 13.48C155.135 13.9493 155.444 14.3227 156.063 14.6C156.682 14.8773 157.503 15.1333 158.527 15.368C159.636 15.624 160.65 15.912 161.567 16.232C162.506 16.5307 163.252 16.9893 163.807 17.608C164.362 18.2053 164.639 19.0693 164.639 20.2C164.66 21.1813 164.404 22.0667 163.871 22.856C163.338 23.6453 162.57 24.264 161.567 24.712C160.564 25.16 159.38 25.384 158.015 25.384ZM185.781 25.384C183.669 25.384 181.823 24.904 180.245 23.944C178.666 22.984 177.439 21.6507 176.565 19.944C175.69 18.216 175.253 16.2107 175.253 13.928C175.253 11.624 175.701 9.59733 176.597 7.848C177.514 6.07733 178.805 4.70133 180.469 3.72C182.154 2.71733 184.149 2.216 186.453 2.216C189.077 2.216 191.253 2.84533 192.981 4.104C194.709 5.36267 195.829 7.10133 196.341 9.32H191.765C191.423 8.27467 190.805 7.464 189.909 6.888C189.013 6.29067 187.861 5.992 186.453 5.992C184.213 5.992 182.485 6.70667 181.269 8.136C180.053 9.544 179.445 11.4853 179.445 13.96C179.445 16.4347 180.042 18.3547 181.237 19.72C182.453 21.064 184.095 21.736 186.165 21.736C188.191 21.736 189.717 21.192 190.741 20.104C191.786 18.9947 192.415 17.544 192.628 15.752H186.965V12.68H196.757V25H192.981L192.661 22.056C191.935 23.1227 191.029 23.944 189.941 24.52C188.853 25.096 187.466 25.384 185.781 25.384ZM206.115 25.384C204.749 25.384 203.629 25.1707 202.755 24.744C201.88 24.296 201.229 23.7093 200.803 22.984C200.376 22.2587 200.163 21.4587 200.163 20.584C200.163 19.112 200.739 17.9173 201.891 17C203.043 16.0827 204.771 15.624 207.075 15.624H211.107V15.24C211.107 14.152 210.797 13.352 210.179 12.84C209.56 12.328 208.792 12.072 207.875 12.072C207.043 12.072 206.317 12.2747 205.699 12.68C205.08 13.064 204.696 13.64 204.547 14.408H200.547C200.653 13.256 201.037 12.2533 201.699 11.4C202.381 10.5467 203.256 9.896 204.323 9.448C205.389 8.97867 206.584 8.744 207.907 8.744C210.168 8.744 211.949 9.30933 213.251 10.44C214.552 11.5707 215.203 13.1707 215.203 15.24V25H211.715L211.331 22.44C210.861 23.2933 210.2 23.9973 209.347 24.552C208.515 25.1067 207.437 25.384 206.115 25.384ZM207.043 22.184C208.216 22.184 209.123 21.8 209.763 21.032C210.424 20.264 210.84 19.3147 211.011 18.184H207.523C206.435 18.184 205.656 18.3867 205.187 18.792C204.717 19.176 204.483 19.656 204.483 20.232C204.483 20.8507 204.717 21.3307 205.187 21.672C205.656 22.0133 206.275 22.184 207.043 22.184ZM228.519 25.384C227.325 25.384 226.279 25.16 225.383 24.712C224.487 24.264 223.762 23.6347 223.207 22.824L222.759 25H219.111V1.96H223.207V11.4C223.719 10.696 224.391 10.0773 225.223 9.544C226.077 9.01067 227.175 8.744 228.519 8.744C230.013 8.744 231.346 9.10667 232.519 9.832C233.693 10.5573 234.621 11.5493 235.303 12.808C235.986 14.0667 236.327 15.496 236.327 17.096C236.327 18.696 235.986 20.1253 235.303 21.384C234.621 22.6213 233.693 23.6027 232.519 24.328C231.346 25.032 230.013 25.384 228.519 25.384ZM227.655 21.8C228.957 21.8 230.034 21.3627 230.887 20.488C231.741 19.6133 232.167 18.4827 232.167 17.096C232.167 15.7093 231.741 14.568 230.887 13.672C230.034 12.776 228.957 12.328 227.655 12.328C226.333 12.328 225.245 12.776 224.391 13.672C223.559 14.5467 223.143 15.6773 223.143 17.064C223.143 18.4507 223.559 19.592 224.391 20.488C225.245 21.3627 226.333 21.8 227.655 21.8ZM239.986 25V9.128H243.634L244.018 12.104C244.594 11.08 245.373 10.2693 246.354 9.672C247.357 9.05333 248.53 8.744 249.874 8.744V13.064H248.722C247.826 13.064 247.026 13.2027 246.322 13.48C245.618 13.7573 245.064 14.2373 244.658 14.92C244.274 15.6027 244.082 16.552 244.082 17.768V25H239.986ZM254.882 6.664C254.135 6.664 253.516 6.44 253.026 5.992C252.556 5.544 252.322 4.97867 252.322 4.296C252.322 3.61333 252.556 3.05867 253.026 2.632C253.516 2.184 254.135 1.96 254.882 1.96C255.628 1.96 256.236 2.184 256.706 2.632C257.196 3.05867 257.442 3.61333 257.442 4.296C257.442 4.97867 257.196 5.544 256.706 5.992C256.236 6.44 255.628 6.664 254.882 6.664ZM252.834 25V9.128H256.93V25H252.834ZM268.917 25.384C267.317 25.384 265.898 25.0427 264.661 24.36C263.424 23.6773 262.453 22.7173 261.749 21.48C261.045 20.2427 260.693 18.8133 260.693 17.192C260.693 15.5493 261.034 14.088 261.717 12.808C262.421 11.528 263.381 10.536 264.597 9.832C265.834 9.10667 267.285 8.744 268.949 8.744C270.506 8.744 271.882 9.08533 273.077 9.768C274.272 10.4507 275.2 11.3893 275.861 12.584C276.544 13.7573 276.885 15.0693 276.885 16.52C276.885 16.7547 276.874 17 276.853 17.256C276.853 17.512 276.842 17.7787 276.821 18.056H264.757C264.842 19.2933 265.269 20.264 266.037 20.968C266.826 21.672 267.776 22.024 268.885 22.024C269.717 22.024 270.41 21.8427 270.965 21.48C271.541 21.096 271.968 20.6053 272.245 20.008H276.405C276.106 21.0107 275.605 21.928 274.901 22.76C274.218 23.5707 273.365 24.2107 272.341 24.68C271.338 25.1493 270.197 25.384 268.917 25.384ZM268.949 12.072C267.946 12.072 267.061 12.36 266.293 12.936C265.525 13.4907 265.034 14.344 264.821 15.496H272.725C272.661 14.4507 272.277 13.6187 271.573 13C270.869 12.3813 269.994 12.072 268.949 12.072ZM280.33 25V1.96H284.426V25H280.33Z" fill="#F2F2F2"/>
</svg>
