<svg width="294" height="29" viewBox="0 0 294 29" fill="none" xmlns="http://www.w3.org/2000/svg">
<path d="M7.248 20.744L0.112 13.512L7.248 6.312H12.432L5.232 13.512L12.432 20.744H7.248ZM265.986 28.552L273.986 0.136H277.986L269.954 28.552H265.986ZM280.959 20.744L288.127 13.512L280.959 6.312H286.111L293.279 13.512L286.111 20.744H280.959Z" fill="#5A35EE"/>
<path d="M24.4885 25V2.6H29.3525L36.4885 16.808L43.5285 2.6H48.3925V25H44.2965V9.544L38.0565 21.8H34.8245L28.5845 9.544V25H24.4885ZM58.1145 25.384C56.7492 25.384 55.6292 25.1707 54.7545 24.744C53.8798 24.296 53.2292 23.7093 52.8025 22.984C52.3758 22.2587 52.1625 21.4587 52.1625 20.584C52.1625 19.112 52.7385 17.9173 53.8905 17C55.0425 16.0827 56.7705 15.624 59.0745 15.624H63.1065V15.24C63.1065 14.152 62.7972 13.352 62.1785 12.84C61.5598 12.328 60.7918 12.072 59.8745 12.072C59.0425 12.072 58.3172 12.2747 57.6985 12.68C57.0798 13.064 56.6958 13.64 56.5465 14.408H52.5465C52.6532 13.256 53.0372 12.2533 53.6985 11.4C54.3812 10.5467 55.2558 9.896 56.3225 9.448C57.3892 8.97867 58.5838 8.744 59.9065 8.744C62.1678 8.744 63.9492 9.30933 65.2505 10.44C66.5518 11.5707 67.2025 13.1707 67.2025 15.24V25H63.7145L63.3305 22.44C62.8612 23.2933 62.1998 23.9973 61.3465 24.552C60.5145 25.1067 59.4372 25.384 58.1145 25.384ZM59.0425 22.184C60.2158 22.184 61.1225 21.8 61.7625 21.032C62.4238 20.264 62.8398 19.3147 63.0105 18.184H59.5225C58.4345 18.184 57.6558 18.3867 57.1865 18.792C56.7172 19.176 56.4825 19.656 56.4825 20.232C56.4825 20.8507 56.7172 21.3307 57.1865 21.672C57.6558 22.0133 58.2745 22.184 59.0425 22.184ZM77.9645 25C76.3005 25 74.9672 24.5947 73.9645 23.784C72.9618 22.9733 72.4605 21.5333 72.4605 19.464V12.552H69.7405V9.128H72.4605L72.9405 4.872H76.5565V9.128H80.8445V12.552H76.5565V19.496C76.5565 20.264 76.7165 20.7973 77.0365 21.096C77.3778 21.3733 77.9538 21.512 78.7645 21.512H80.7485V25H77.9645ZM91.667 25.384C90.067 25.384 88.6483 25.0427 87.411 24.36C86.1737 23.6773 85.203 22.7173 84.499 21.48C83.795 20.2427 83.443 18.8133 83.443 17.192C83.443 15.5493 83.7843 14.088 84.467 12.808C85.171 11.528 86.131 10.536 87.347 9.832C88.5843 9.10667 90.035 8.744 91.699 8.744C93.2563 8.744 94.6323 9.08533 95.827 9.768C97.0217 10.4507 97.9497 11.3893 98.611 12.584C99.2937 13.7573 99.635 15.0693 99.635 16.52C99.635 16.7547 99.6243 17 99.603 17.256C99.603 17.512 99.5923 17.7787 99.571 18.056H87.507C87.5923 19.2933 88.019 20.264 88.787 20.968C89.5763 21.672 90.5257 22.024 91.635 22.024C92.467 22.024 93.1603 21.8427 93.715 21.48C94.291 21.096 94.7177 20.6053 94.995 20.008H99.155C98.8563 21.0107 98.355 21.928 97.651 22.76C96.9683 23.5707 96.115 24.2107 95.091 24.68C94.0883 25.1493 92.947 25.384 91.667 25.384ZM91.699 12.072C90.6963 12.072 89.811 12.36 89.043 12.936C88.275 13.4907 87.7843 14.344 87.571 15.496H95.475C95.411 14.4507 95.027 13.6187 94.323 13C93.619 12.3813 92.7443 12.072 91.699 12.072ZM109.032 25.384C107.048 25.384 105.512 24.7653 104.424 23.528C103.357 22.2907 102.824 20.4773 102.824 18.088V9.128H106.888V17.704C106.888 19.0693 107.165 20.1147 107.72 20.84C108.275 21.5653 109.149 21.928 110.344 21.928C111.475 21.928 112.403 21.5227 113.128 20.712C113.875 19.9013 114.248 18.7707 114.248 17.32V9.128H118.344V25H114.728L114.408 22.312C113.917 23.2507 113.203 23.9973 112.264 24.552C111.347 25.1067 110.269 25.384 109.032 25.384ZM129.109 25.384C127.701 25.384 126.463 25.16 125.397 24.712C124.33 24.2427 123.477 23.6027 122.837 22.792C122.197 21.9813 121.813 21.0427 121.685 19.976H125.813C125.941 20.5947 126.282 21.128 126.837 21.576C127.413 22.0027 128.149 22.216 129.045 22.216C129.941 22.216 130.591 22.0347 130.997 21.672C131.423 21.3093 131.637 20.8933 131.637 20.424C131.637 19.7413 131.338 19.2827 130.741 19.048C130.143 18.792 129.311 18.5467 128.245 18.312C127.562 18.1627 126.869 17.9813 126.165 17.768C125.461 17.5547 124.81 17.288 124.213 16.968C123.637 16.6267 123.167 16.2 122.805 15.688C122.442 15.1547 122.261 14.504 122.261 13.736C122.261 12.328 122.815 11.144 123.925 10.184C125.055 9.224 126.634 8.744 128.661 8.744C130.538 8.744 132.031 9.18133 133.141 10.056C134.271 10.9307 134.943 12.136 135.157 13.672H131.285C131.05 12.4987 130.165 11.912 128.629 11.912C127.861 11.912 127.263 12.0613 126.837 12.36C126.431 12.6587 126.229 13.032 126.229 13.48C126.229 13.9493 126.538 14.3227 127.157 14.6C127.775 14.8773 128.597 15.1333 129.621 15.368C130.73 15.624 131.743 15.912 132.661 16.232C133.599 16.5307 134.346 16.9893 134.901 17.608C135.455 18.2053 135.733 19.0693 135.733 20.2C135.754 21.1813 135.498 22.0667 134.965 22.856C134.431 23.6453 133.663 24.264 132.661 24.712C131.658 25.16 130.474 25.384 129.109 25.384ZM156.874 25.384C154.762 25.384 152.917 24.904 151.338 23.944C149.76 22.984 148.533 21.6507 147.658 19.944C146.784 18.216 146.346 16.2107 146.346 13.928C146.346 11.624 146.794 9.59733 147.69 7.848C148.608 6.07733 149.898 4.70133 151.562 3.72C153.248 2.71733 155.242 2.216 157.546 2.216C160.17 2.216 162.346 2.84533 164.074 4.104C165.802 5.36267 166.922 7.10133 167.434 9.32H162.858C162.517 8.27467 161.898 7.464 161.002 6.888C160.106 6.29067 158.954 5.992 157.546 5.992C155.306 5.992 153.578 6.70667 152.362 8.136C151.146 9.544 150.538 11.4853 150.538 13.96C150.538 16.4347 151.136 18.3547 152.33 19.72C153.546 21.064 155.189 21.736 157.258 21.736C159.285 21.736 160.81 21.192 161.834 20.104C162.88 18.9947 163.509 17.544 163.722 15.752H158.058V12.68H167.85V25H164.074L163.754 22.056C163.029 23.1227 162.122 23.944 161.034 24.52C159.946 25.096 158.56 25.384 156.874 25.384ZM177.208 25.384C175.843 25.384 174.723 25.1707 173.848 24.744C172.974 24.296 172.323 23.7093 171.896 22.984C171.47 22.2587 171.256 21.4587 171.256 20.584C171.256 19.112 171.832 17.9173 172.984 17C174.136 16.0827 175.864 15.624 178.168 15.624H182.2V15.24C182.2 14.152 181.891 13.352 181.272 12.84C180.654 12.328 179.886 12.072 178.968 12.072C178.136 12.072 177.411 12.2747 176.792 12.68C176.174 13.064 175.79 13.64 175.64 14.408H171.64C171.747 13.256 172.131 12.2533 172.792 11.4C173.475 10.5467 174.35 9.896 175.416 9.448C176.483 8.97867 177.678 8.744 179 8.744C181.262 8.744 183.043 9.30933 184.344 10.44C185.646 11.5707 186.296 13.1707 186.296 15.24V25H182.808L182.424 22.44C181.955 23.2933 181.294 23.9973 180.44 24.552C179.608 25.1067 178.531 25.384 177.208 25.384ZM178.136 22.184C179.31 22.184 180.216 21.8 180.856 21.032C181.518 20.264 181.934 19.3147 182.104 18.184H178.616C177.528 18.184 176.75 18.3867 176.28 18.792C175.811 19.176 175.576 19.656 175.576 20.232C175.576 20.8507 175.811 21.3307 176.28 21.672C176.75 22.0133 177.368 22.184 178.136 22.184ZM199.613 25.384C198.418 25.384 197.373 25.16 196.477 24.712C195.581 24.264 194.856 23.6347 194.301 22.824L193.853 25H190.205V1.96H194.301V11.4C194.813 10.696 195.485 10.0773 196.317 9.544C197.17 9.01067 198.269 8.744 199.613 8.744C201.106 8.744 202.44 9.10667 203.613 9.832C204.786 10.5573 205.714 11.5493 206.397 12.808C207.08 14.0667 207.421 15.496 207.421 17.096C207.421 18.696 207.08 20.1253 206.397 21.384C205.714 22.6213 204.786 23.6027 203.613 24.328C202.44 25.032 201.106 25.384 199.613 25.384ZM198.749 21.8C200.05 21.8 201.128 21.3627 201.981 20.488C202.834 19.6133 203.261 18.4827 203.261 17.096C203.261 15.7093 202.834 14.568 201.981 13.672C201.128 12.776 200.05 12.328 198.749 12.328C197.426 12.328 196.338 12.776 195.485 13.672C194.653 14.5467 194.237 15.6773 194.237 17.064C194.237 18.4507 194.653 19.592 195.485 20.488C196.338 21.3627 197.426 21.8 198.749 21.8ZM211.08 25V9.128H214.728L215.112 12.104C215.688 11.08 216.467 10.2693 217.448 9.672C218.451 9.05333 219.624 8.744 220.968 8.744V13.064H219.816C218.92 13.064 218.12 13.2027 217.416 13.48C216.712 13.7573 216.157 14.2373 215.752 14.92C215.368 15.6027 215.176 16.552 215.176 17.768V25H211.08ZM225.976 6.664C225.229 6.664 224.61 6.44 224.12 5.992C223.65 5.544 223.416 4.97867 223.416 4.296C223.416 3.61333 223.65 3.05867 224.12 2.632C224.61 2.184 225.229 1.96 225.976 1.96C226.722 1.96 227.33 2.184 227.8 2.632C228.29 3.05867 228.536 3.61333 228.536 4.296C228.536 4.97867 228.29 5.544 227.8 5.992C227.33 6.44 226.722 6.664 225.976 6.664ZM223.928 25V9.128H228.024V25H223.928ZM240.011 25.384C238.411 25.384 236.992 25.0427 235.755 24.36C234.517 23.6773 233.547 22.7173 232.843 21.48C232.139 20.2427 231.787 18.8133 231.787 17.192C231.787 15.5493 232.128 14.088 232.811 12.808C233.515 11.528 234.475 10.536 235.691 9.832C236.928 9.10667 238.379 8.744 240.043 8.744C241.6 8.744 242.976 9.08533 244.171 9.768C245.365 10.4507 246.293 11.3893 246.955 12.584C247.637 13.7573 247.979 15.0693 247.979 16.52C247.979 16.7547 247.968 17 247.947 17.256C247.947 17.512 247.936 17.7787 247.915 18.056H235.851C235.936 19.2933 236.363 20.264 237.131 20.968C237.92 21.672 238.869 22.024 239.979 22.024C240.811 22.024 241.504 21.8427 242.059 21.48C242.635 21.096 243.061 20.6053 243.339 20.008H247.499C247.2 21.0107 246.699 21.928 245.995 22.76C245.312 23.5707 244.459 24.2107 243.435 24.68C242.432 25.1493 241.291 25.384 240.011 25.384ZM240.043 12.072C239.04 12.072 238.155 12.36 237.387 12.936C236.619 13.4907 236.128 14.344 235.915 15.496H243.819C243.755 14.4507 243.371 13.6187 242.667 13C241.963 12.3813 241.088 12.072 240.043 12.072ZM251.424 25V1.96H255.52V25H251.424Z" fill="#F2F2F2"/>
</svg>
