<svg width="32" height="32" viewBox="0 0 32 32" fill="none" xmlns="http://www.w3.org/2000/svg">
<path d="M8.96 2.55371C5.43274 2.55371 2.56 5.42646 2.56 8.95371V23.0337C2.56 26.561 5.43274 29.4337 8.96 29.4337H23.04C26.5673 29.4337 29.44 26.561 29.44 23.0337V8.95371C29.44 5.42646 26.5673 2.55371 23.04 2.55371H8.96ZM8.96 3.83371H23.04C25.8756 3.83371 28.16 6.11808 28.16 8.95371V23.0337C28.16 25.8693 25.8756 28.1537 23.04 28.1537H8.96C6.12437 28.1537 3.84 25.8693 3.84 23.0337V8.95371C3.84 6.11808 6.12437 3.83371 8.96 3.83371ZM11.5512 7.06246C10.2422 7.0059 9.24872 7.50327 8.62375 8.10121C8.31126 8.40018 8.08565 8.72008 7.93125 9.01871C7.77684 9.31735 7.67875 9.56355 7.67875 9.88371C7.67875 9.85519 7.67172 10.0049 7.6675 10.1787C7.66327 10.3525 7.66404 10.5869 7.68 10.87C7.71197 11.4361 7.80793 12.202 8.0625 13.11C8.57163 14.9259 9.71804 17.308 12.205 19.795C14.692 22.2819 17.0739 23.4282 18.89 23.9375C19.798 24.1921 20.5638 24.2879 21.13 24.32C21.4131 24.336 21.6461 24.3367 21.82 24.3325C21.9939 24.3282 22.1447 24.3212 22.1162 24.3212C22.4364 24.3212 22.6826 24.2231 22.9812 24.0687C23.2799 23.9143 23.5998 23.6887 23.8987 23.3762C24.4967 22.7512 24.9941 21.7577 24.9375 20.4487C24.9107 19.8244 24.564 19.2715 24.0525 18.9437C23.6572 18.6904 23.0435 18.2972 22.2425 17.785C21.3132 17.1912 20.1245 17.1488 19.155 17.68L19.21 17.6525L18.4562 17.9762L18.4012 18.015C18.218 18.1436 17.9911 18.1674 17.785 18.0812C17.2076 17.8397 16.3078 17.3653 15.4712 16.5287C14.6347 15.6921 14.1602 14.7924 13.9187 14.215C13.8325 14.0088 13.8564 13.7819 13.985 13.5987L14.0237 13.5437L14.3475 12.79L14.32 12.845C14.851 11.8757 14.8098 10.6871 14.215 9.75746C13.7028 8.95647 13.3096 8.34278 13.0562 7.94746C12.7284 7.43592 12.1756 7.0893 11.5512 7.06246ZM11.4962 8.34121C11.6758 8.34893 11.8611 8.45396 11.9787 8.63746C12.2323 9.03319 12.6257 9.64717 13.1375 10.4475C13.4771 10.9783 13.501 11.676 13.1975 12.23L13.1825 12.2575L12.8737 12.9787L12.9375 12.8625C12.5593 13.4012 12.4832 14.1008 12.7375 14.7087C13.0259 15.3985 13.5775 16.445 14.5662 17.4337C15.5549 18.4224 16.6015 18.974 17.2912 19.2625C17.8992 19.5167 18.5988 19.4407 19.1375 19.0625L19.0212 19.1262L19.7425 18.8175L19.77 18.8025C20.3237 18.4991 21.0214 18.5244 21.5525 18.8637V18.8625C22.3528 19.3742 22.9668 19.7676 23.3625 20.0212C23.546 20.1388 23.651 20.3242 23.6587 20.5037C23.7007 21.4757 23.3632 22.0842 22.9737 22.4912C22.779 22.6947 22.5679 22.8424 22.3937 22.9325C22.2196 23.0225 22.053 23.0412 22.1162 23.0412C21.9989 23.0412 21.937 23.0489 21.79 23.0525C21.643 23.056 21.4459 23.0562 21.2025 23.0425C20.7158 23.0149 20.044 22.9318 19.235 22.705C17.617 22.2512 15.448 21.228 13.11 18.89C10.772 16.552 9.74859 14.3828 9.295 12.765C9.0682 11.956 8.98498 11.2841 8.9575 10.7975C8.94376 10.5541 8.94393 10.357 8.9475 10.21C8.95108 10.0629 8.95875 10.0012 8.95875 9.88371C8.95875 9.94691 8.97746 9.78036 9.0675 9.60621C9.15753 9.43207 9.30523 9.22092 9.50875 9.02621C9.91577 8.63679 10.5243 8.29921 11.4962 8.34121Z" fill="#8569F4"/>
</svg>
