<svg width="150" height="150" viewBox="0 0 150 150" fill="none" xmlns="http://www.w3.org/2000/svg">
<rect x="0.5" y="0.5" width="149" height="149" rx="9.5" fill="#212121" stroke="#333333"/>
<path d="M115 73.9633C115 68.6633 108.363 63.64 98.1867 60.5267C100.537 50.1567 99.4933 41.9033 94.8933 39.26C93.7787 38.6357 92.5172 38.3215 91.24 38.35V41.9833C91.99 41.9833 92.5933 42.1333 93.1 42.41C95.3167 43.6833 96.28 48.5233 95.53 54.7533C95.35 56.2867 95.0567 57.9 94.6967 59.5466C91.2888 58.7254 87.83 58.1319 84.3433 57.77C82.2662 54.9043 80 52.1804 77.56 49.6167C82.8767 44.6767 87.8667 41.97 91.26 41.97V38.3333C86.7733 38.3333 80.9033 41.53 74.9667 47.0733C69.0333 41.5667 63.16 38.4 58.6767 38.4V42.0333C62.0533 42.0333 67.06 44.7266 72.3767 49.6333C70.0933 52.0333 67.81 54.7533 65.64 57.77C62.1461 58.1279 58.6812 58.7271 55.27 59.5633C54.8933 57.9333 54.6167 56.3533 54.42 54.8367C53.6533 48.6033 54.6 43.7633 56.8033 42.4767C57.29 42.1833 57.9267 42.05 58.6767 42.05V38.4167C57.31 38.4167 56.0667 38.71 54.9933 39.3267C50.41 41.97 49.3833 50.2033 51.7467 60.5433C41.6033 63.6767 35 68.68 35 73.9633C35 79.2633 41.6367 84.2867 51.8133 87.3967C49.4633 97.77 50.5067 106.023 55.1067 108.663C56.1667 109.283 57.4067 109.577 58.7733 109.577C63.26 109.577 69.13 106.38 75.0667 100.837C81 106.347 86.87 109.51 91.3567 109.51C92.6437 109.537 93.9148 109.222 95.04 108.597C99.6233 105.957 100.65 97.7233 98.2867 87.3833C108.397 84.27 115 79.2467 115 73.9633ZM93.7667 63.0867C93.1333 65.2662 92.3992 67.4151 91.5667 69.5267C90.2039 66.8758 88.7075 64.2959 87.0833 61.7966C89.4 62.14 91.6333 62.5633 93.77 63.0867H93.7667ZM86.3 80.4533C85.03 82.6533 83.7233 84.7433 82.37 86.6833C77.4775 87.1145 72.5568 87.1201 67.6633 86.7C64.8565 82.6906 62.4018 78.4459 60.3267 74.0133C62.3986 69.5703 64.8429 65.3107 67.6333 61.28C72.5246 60.8479 77.4442 60.8412 82.3367 61.26C83.69 63.2 85.0133 65.2733 86.2833 67.46C87.5233 69.5933 88.65 71.76 89.6767 73.9467C88.6386 76.1598 87.5121 78.3305 86.3 80.4533ZM91.5667 78.3333C92.4467 80.5167 93.2 82.7033 93.8167 84.8233C91.6833 85.3466 89.43 85.7867 87.1 86.1267C88.7175 83.6047 90.2082 81.0037 91.5667 78.3333ZM75.0333 95.7333C73.5167 94.1666 72 92.4233 70.5 90.5133C71.9667 90.58 73.4667 90.63 74.9833 90.63C76.5167 90.63 78.0333 90.5966 79.5167 90.5133C78.05 92.4233 76.5333 94.1666 75.0333 95.7333ZM62.9 86.1267C60.6525 85.801 58.4212 85.3717 56.2133 84.84C56.8167 82.7367 57.5667 80.5667 58.4133 78.4C59.0833 79.7 59.7867 81.0067 60.5533 82.3133C61.32 83.6167 62.1 84.89 62.9 86.1267ZM74.95 52.1933C76.4667 53.76 77.9833 55.5033 79.4833 57.4133C78.0167 57.3467 76.5167 57.2967 75 57.2967C73.4667 57.2967 71.95 57.33 70.4667 57.4133C71.9333 55.5033 73.45 53.76 74.95 52.1933ZM62.8833 61.8C61.2662 64.3164 59.7755 66.9119 58.4167 69.5767C57.5607 67.4515 56.8098 65.2856 56.1667 63.0867C58.3 62.58 60.5533 62.14 62.8833 61.8ZM48.1267 82.2133C42.3533 79.7533 38.62 76.5233 38.62 73.9633C38.62 71.4033 42.3533 68.1567 48.1267 65.7133C49.5267 65.11 51.06 64.57 52.6433 64.0667C53.5733 67.26 54.7967 70.5867 56.31 73.9967C54.8812 77.2039 53.6729 80.5049 52.6933 83.8767C51.1448 83.3972 49.6208 82.8421 48.1267 82.2133ZM56.9 105.513C54.6833 104.247 53.72 99.4 54.47 93.1733C54.65 91.64 54.9433 90.0233 55.3033 88.3767C58.4967 89.16 61.9867 89.7633 65.6567 90.1567C67.7339 93.0223 70.0001 95.7461 72.44 98.31C67.1233 103.25 62.1333 105.957 58.74 105.957C58.0998 105.964 57.4678 105.813 56.9 105.517V105.513ZM95.58 93.09C96.3467 99.32 95.4 104.163 93.1967 105.45C92.71 105.743 92.0733 105.873 91.3233 105.873C87.9467 105.873 82.94 103.183 77.6233 98.2733C79.9067 95.88 82.19 93.1567 84.36 90.14C87.8539 89.7821 91.3188 89.1829 94.73 88.3467C95.1067 89.9933 95.3967 91.5733 95.58 93.09ZM101.857 82.2133C100.457 82.8167 98.9233 83.3567 97.34 83.86C96.3432 80.471 95.1182 77.1535 93.6733 73.93C95.1733 70.54 96.3767 67.23 97.29 64.05C98.9067 64.5533 100.437 65.11 101.873 65.7133C107.647 68.1733 111.38 71.4033 111.38 73.9633C111.363 76.5233 107.63 79.77 101.857 82.2133Z" fill="#8569F4"/>
<path d="M74.9828 81.4163C76.9596 81.4163 78.8554 80.6311 80.2531 79.2333C81.6509 77.8355 82.4362 75.9398 82.4362 73.963C82.4362 71.9863 81.6509 70.0905 80.2531 68.6927C78.8554 67.2949 76.9596 66.5097 74.9828 66.5097C73.0061 66.5097 71.1103 67.2949 69.7125 68.6927C68.3148 70.0905 67.5295 71.9863 67.5295 73.963C67.5295 75.9398 68.3148 77.8355 69.7125 79.2333C71.1103 80.6311 73.0061 81.4163 74.9828 81.4163Z" fill="#8569F4"/>
</svg>
