<svg width="150" height="150" viewBox="0 0 150 150" fill="none" xmlns="http://www.w3.org/2000/svg">
<rect x="0.5" y="0.5" width="149" height="149" rx="9.5" fill="#212121" stroke="#333333"/>
<path d="M34 43.1667V107.333C34 112.398 38.1021 116.5 43.1667 116.5H107.333C112.398 116.5 116.5 112.398 116.5 107.333V43.1667C116.5 38.1021 112.398 34 107.333 34H43.1667C38.1021 34 34 38.1021 34 43.1667ZM82.8858 77.3171H73.1783V107.333H65.3546V77.3171H55.8488V70.6667H82.8858V77.3171ZM84.4075 105.619V97.5938C84.4075 97.5938 88.7892 100.898 94.0508 100.898C99.3125 100.898 99.1063 97.4608 99.1063 96.9888C99.1063 91.9975 84.2058 91.9975 84.2058 80.9425C84.2058 65.9046 105.917 71.84 105.917 71.84L105.647 78.9854C105.647 78.9854 102.008 76.5563 97.8917 76.5563C93.7804 76.5563 92.2954 78.5133 92.2954 80.6033C92.2954 85.9979 107.333 85.4571 107.333 96.315C107.333 113.035 84.4075 105.619 84.4075 105.619Z" fill="#8569F4"/>
</svg>
